<?xml version="1.0" encoding="UTF-8" standalone="no"?>
<svg
   width="54.910202"
   height="54.910202"
   viewBox="0 0 54.910202 54.910202"
   fill="none"
   version="1.1"
   id="svg4"
   sodipodi:docname="favicon.svg"
   inkscape:version="1.3.2 (091e20e, 2023-11-25, custom)"
   xmlns:inkscape="http://www.inkscape.org/namespaces/inkscape"
   xmlns:sodipodi="http://sodipodi.sourceforge.net/DTD/sodipodi-0.dtd"
   xmlns="http://www.w3.org/2000/svg"
   xmlns:svg="http://www.w3.org/2000/svg">
  <defs
     id="defs4" />
  <sodipodi:namedview
     id="namedview4"
     pagecolor="#ffffff"
     bordercolor="#000000"
     borderopacity="0.25"
     inkscape:showpageshadow="2"
     inkscape:pageopacity="0.0"
     inkscape:pagecheckerboard="0"
     inkscape:deskcolor="#d1d1d1"
     inkscape:zoom="5.347495"
     inkscape:cx="51.799955"
     inkscape:cy="10.378691"
     inkscape:window-width="1920"
     inkscape:window-height="1009"
     inkscape:window-x="-8"
     inkscape:window-y="-8"
     inkscape:window-maximized="1"
     inkscape:current-layer="svg4" />
  <g
     id="g1"
     transform="translate(103.9922,5.9841104)"
     style="fill:#ffffff">
    <path
       d="M -49.581999,-5.4841103 V 48.42609 H -103.4922 V -5.4841103 Z"
       fill="white"
       stroke="#3a4d9c"
       id="path3"
       style="fill:none;stroke:#ffffff" />
    <path
       d="m -76.740999,-3.7647503 c -13.4543,0.19016 -24.434201,11.17874 -24.532601,24.5519403 -0.0984,13.3731 10.719401,24.5234 24.169501,24.9091 12.573,0.3606 23.3923,-8.8027 25.3037,-20.9094 h -15.0866 c -1.5371,3.8684 -5.331,6.4803 -9.7954,6.3522 -5.6465,-0.162 -9.9832,-4.6314 -9.9419,-10.2456 0.0414,-5.6141 4.4464,-10.0176 10.0946,-10.0975 4.4121,-0.0623 8.127,2.5402 9.6427,6.3542 h 15.0829 c -1.8899,-11.9580003 -12.4835,-21.0909503 -24.9369,-20.9149403 z"
       fill="#3a4d9c"
       id="path4"
       style="fill:#ffffff" />
  </g>
</svg>
