<?xml version="1.0" encoding="UTF-8" standalone="no"?>
<svg
   width="128"
   height="78"
   viewBox="0 0 128 78"
   fill="none"
   version="1.1"
   id="svg4"
   sodipodi:docname="districandelariaLogo2.svg"
   inkscape:version="1.3.2 (091e20e, 2023-11-25, custom)"
   xmlns:inkscape="http://www.inkscape.org/namespaces/inkscape"
   xmlns:sodipodi="http://sodipodi.sourceforge.net/DTD/sodipodi-0.dtd"
   xmlns="http://www.w3.org/2000/svg"
   xmlns:svg="http://www.w3.org/2000/svg">
  <defs
     id="defs4" />
  <sodipodi:namedview
     id="namedview4"
     pagecolor="#ffffff"
     bordercolor="#000000"
     borderopacity="0.25"
     inkscape:showpageshadow="2"
     inkscape:pageopacity="0.0"
     inkscape:pagecheckerboard="0"
     inkscape:deskcolor="#d1d1d1"
     inkscape:zoom="2.6737475"
     inkscape:cx="-44.880827"
     inkscape:cy="71.248313"
     inkscape:window-width="1920"
     inkscape:window-height="1009"
     inkscape:window-x="-8"
     inkscape:window-y="-8"
     inkscape:window-maximized="1"
     inkscape:current-layer="svg4" />
  <path
     d="M7.83216 77.6165C11.7296 77.6165 14.1114 75.218 14.1114 71.4538C14.1114 68.2393 11.8295 65.2912 8.09866 65.2912H3.81812V77.6165H7.83216ZM5.61695 75.9676V66.9401H7.84881C10.3638 66.9401 12.3126 68.7223 12.3126 71.4872C12.3126 74.302 10.6137 75.9676 7.76554 75.9676H5.61695ZM17.8967 67.3232V65.2912H16.1645V67.3232H17.8967ZM17.8967 77.6165V68.3892H16.1645V77.6165H17.8967ZM25.6128 70.8376C25.5628 69.2053 24.3136 68.1394 22.7813 68.1394C21.2656 68.1394 19.8832 69.222 19.8832 70.8542C19.8832 71.9036 20.2663 72.8862 22.5314 73.6024C23.6141 73.9522 24.0971 74.3686 24.0971 75.0015C24.0971 75.751 23.5641 76.2674 22.7646 76.2674C21.8486 76.2674 21.2823 75.7011 21.199 74.5851H19.4668C19.4668 76.7171 21.0657 77.8497 22.7313 77.8497C24.5301 77.8497 25.8293 76.6838 25.8293 74.9016C25.8293 73.186 24.6301 72.4032 23.3309 72.0035C22.4149 71.7203 21.6154 71.4872 21.6154 70.7043C21.6154 70.1714 22.0318 69.7217 22.698 69.7217C23.4142 69.7217 23.7973 70.1714 23.8806 70.8376H25.6128ZM29.6146 77.6165V69.9715H31.1303V68.3892H29.6146V65.2912H27.8824V68.3892H26.6332V69.9715H27.8824V77.6165H29.6146ZM34.1494 77.6165V72.4365C34.1494 70.8876 34.9156 69.9715 36.4146 69.9215V68.1394C35.1987 68.206 34.4825 68.6057 34.0661 69.222H34.0328V68.3892H32.4172V77.6165H34.1494ZM39.95 67.3232V65.2912H38.2178V67.3232H39.95ZM39.95 77.6165V68.3892H38.2178V77.6165H39.95Z"
     fill="#3A4D9C"
     id="path1" />
  <path
     d="M51.5303 74.5685C50.5309 75.701 49.3817 76.2007 48.0992 76.2007C45.5675 76.2007 43.6188 73.9189 43.6188 71.3372C43.6188 68.8888 45.6175 66.7069 48.1991 66.7069C49.6482 66.7069 50.7308 67.3565 51.6635 68.4391H53.8288C52.5796 66.124 50.3977 65.058 48.0659 65.058C44.7514 65.058 41.8199 67.7896 41.8199 71.5038C41.8199 74.785 44.6348 77.8496 48.0492 77.8496C50.5143 77.8496 52.4963 76.7171 53.7455 74.5685H51.5303ZM58.8518 76.2673C57.1196 76.2673 55.7038 74.7517 55.7038 73.0195C55.7038 71.204 57.1196 69.7216 58.8518 69.7216C60.7672 69.7216 62.0663 71.2206 62.0663 73.0195C62.0663 74.7683 60.6506 76.2673 58.8518 76.2673ZM63.7652 77.6165V68.3892H62.033V69.6883H61.9997C61.2835 68.639 60.1509 68.1393 58.8018 68.1393C56.0869 68.1393 53.9716 70.2046 53.9716 73.1527C53.9716 75.8176 56.1702 77.8496 58.8684 77.8496C60.1842 77.8496 61.3501 77.2834 61.9997 76.1841H62.033V77.6165H63.7652ZM73.5518 77.6165V72.0867C73.5518 69.5384 71.9195 68.1393 69.7043 68.1393C68.6383 68.1393 67.6889 68.4891 67.006 69.3719H66.9728V68.3892H65.3571V77.6165H67.0893V72.5698C67.0893 70.8376 68.0054 69.7216 69.5211 69.7216C71.0534 69.7216 71.8196 70.6377 71.8196 72.5864V77.6165H73.5518ZM82.7553 73.0861C82.7553 74.835 81.2896 76.2673 79.5408 76.2673C77.8086 76.2673 76.3929 74.7517 76.3929 73.0195C76.3929 71.204 77.7753 69.7216 79.5408 69.7216C81.4895 69.7216 82.7553 71.204 82.7553 73.0861ZM84.3543 77.6165V65.2912H82.6221V69.5218H82.5888C81.8393 68.589 80.6567 68.1393 79.4076 68.1393C76.6594 68.1393 74.6607 70.2879 74.6607 73.1028C74.6607 75.8176 76.776 77.8496 79.4575 77.8496C80.8067 77.8496 82.0059 77.3 82.7221 76.3007H82.7553V77.6165H84.3543ZM87.2287 72.4199C87.3619 70.8376 88.7777 69.7216 90.1934 69.7216C91.6758 69.7216 93.0582 70.8542 93.1915 72.4199H87.2287ZM94.8737 73.7523C94.9237 73.4359 94.9237 73.1694 94.9237 72.8862C94.9237 70.238 92.8583 68.1393 90.1435 68.1393C87.6951 68.1393 85.4965 70.1713 85.4965 73.0861C85.4965 75.5511 87.5951 77.8496 90.1934 77.8496C92.1755 77.8496 93.9077 76.6171 94.6239 74.7184H92.8917C92.3587 75.701 91.3427 76.2673 90.2601 76.2673C88.8443 76.2673 87.6284 75.2847 87.2287 73.7523H94.8737ZM97.7647 77.6165V65.2912H96.0325V77.6165H97.7647ZM103.77 76.2673C102.038 76.2673 100.622 74.7517 100.622 73.0195C100.622 71.204 102.038 69.7216 103.77 69.7216C105.686 69.7216 106.985 71.2206 106.985 73.0195C106.985 74.7683 105.569 76.2673 103.77 76.2673ZM108.684 77.6165V68.3892H106.952V69.6883H106.918C106.202 68.639 105.07 68.1393 103.721 68.1393C101.006 68.1393 98.8903 70.2046 98.8903 73.1527C98.8903 75.8176 101.089 77.8496 103.787 77.8496C105.103 77.8496 106.269 77.2834 106.918 76.1841H106.952V77.6165H108.684ZM112.025 77.6165V72.4365C112.025 70.8875 112.791 69.9715 114.29 69.9215V68.1393C113.074 68.206 112.358 68.6057 111.941 69.222H111.908V68.3892H110.292V77.6165H112.025ZM117.081 67.3232V65.2912H115.349V67.3232H117.081ZM117.081 77.6165V68.3892H115.349V77.6165H117.081ZM123.087 76.2673C121.354 76.2673 119.939 74.7517 119.939 73.0195C119.939 71.204 121.354 69.7216 123.087 69.7216C125.002 69.7216 126.301 71.2206 126.301 73.0195C126.301 74.7683 124.885 76.2673 123.087 76.2673ZM128 77.6165V68.3892H126.268V69.6883H126.235C125.518 68.639 124.386 68.1393 123.037 68.1393C120.322 68.1393 118.207 70.2046 118.207 73.1527C118.207 75.8176 120.405 77.8496 123.103 77.8496C124.419 77.8496 125.585 77.2834 126.235 76.1841H126.268V77.6165H128Z"
     fill="#3A4D9C"
     id="path2" />
  <path
     d="M91.4186 0.5V54.4102H37.5084V0.5H91.4186Z"
     fill="white"
     stroke="#3A4D9C"
     id="path3"
     style="fill:none" />
  <path
     d="M64.2596 2.21936C50.8053 2.40952 39.8254 13.3981 39.727 26.7713C39.6286 40.1444 50.4464 51.2947 63.8965 51.6804C76.4695 52.041 87.2888 42.8777 89.2002 30.771H74.1136C72.5765 34.6394 68.7826 37.2513 64.3182 37.1232C58.6717 36.9612 54.335 32.4918 54.3763 26.8776C54.4177 21.2635 58.8227 16.86 64.4709 16.7801C68.883 16.7178 72.5979 19.3203 74.1136 23.1343H89.1965C87.3066 11.1763 76.713 2.04335 64.2596 2.21936Z"
     fill="#3A4D9C"
     id="path4" />
</svg>
