<svg width="272" height="54" viewBox="0 0 272 54" fill="none" xmlns="http://www.w3.org/2000/svg">
<path d="M56.6571 0V54H271.162V0H56.6571ZM58.5955 1.90013H269.224V52.0963H58.5955V1.90013Z" fill="white"/>
<path d="M69.4095 36.8248C75.7555 36.8248 79.6336 32.9196 79.6336 26.7906C79.6336 21.5566 75.9182 16.7564 69.8435 16.7564H62.8738V36.8248H69.4095ZM65.8027 34.1399V19.4413H69.4367C73.5317 19.4413 76.7047 22.343 76.7047 26.8448C76.7047 31.428 73.9385 34.1399 69.3011 34.1399H65.8027ZM85.7969 20.065V16.7564H82.9765V20.065H85.7969ZM85.7969 36.8248V21.8006H82.9765V36.8248H85.7969ZM98.3604 25.7872C98.2791 23.1295 96.2451 21.3939 93.7501 21.3939C91.2822 21.3939 89.0314 23.1566 89.0314 25.8143C89.0314 27.5228 89.6551 29.1229 93.3433 30.289C95.1061 30.8585 95.8925 31.5365 95.8925 32.567C95.8925 33.7874 95.0247 34.6281 93.723 34.6281C92.2314 34.6281 91.3094 33.706 91.1738 31.889H88.3534C88.3534 35.3603 90.9568 37.2044 93.6688 37.2044C96.5977 37.2044 98.713 35.3061 98.713 32.4043C98.713 29.611 96.7604 28.3364 94.6451 27.6855C93.1535 27.2245 91.8518 26.8448 91.8518 25.5702C91.8518 24.7024 92.5298 23.9702 93.6145 23.9702C94.7807 23.9702 95.4044 24.7024 95.54 25.7872H98.3604ZM104.876 36.8248V24.377H107.344V21.8006H104.876V16.7564H102.056V21.8006H100.022V24.377H102.056V36.8248H104.876ZM112.26 36.8248V28.3906C112.26 25.8685 113.507 24.377 115.948 24.2956V21.3939C113.969 21.5023 112.802 22.1532 112.124 23.1566H112.07V21.8006H109.44V36.8248H112.26ZM121.705 20.065V16.7564H118.884V20.065H121.705ZM121.705 36.8248V21.8006H118.884V36.8248H121.705Z" fill="white"/>
<path d="M140.56 31.8619C138.933 33.706 137.062 34.5196 134.973 34.5196C130.851 34.5196 127.678 30.8043 127.678 26.6008C127.678 22.6142 130.933 19.0616 135.136 19.0616C137.496 19.0616 139.258 20.1192 140.777 21.882H144.302C142.269 18.1124 138.716 16.3768 134.919 16.3768C129.522 16.3768 124.749 20.8243 124.749 26.872C124.749 32.2145 129.333 37.2044 134.892 37.2044C138.906 37.2044 142.133 35.3603 144.167 31.8619H140.56ZM152.481 34.6281C149.661 34.6281 147.355 32.1602 147.355 29.3398C147.355 26.3838 149.661 23.9702 152.481 23.9702C155.6 23.9702 157.715 26.4109 157.715 29.3398C157.715 32.1874 155.41 34.6281 152.481 34.6281ZM160.481 36.8248V21.8006H157.661V23.916H157.607C156.44 22.2074 154.596 21.3939 152.4 21.3939C147.979 21.3939 144.535 24.7567 144.535 29.5568C144.535 33.8959 148.115 37.2044 152.508 37.2044C154.651 37.2044 156.549 36.2824 157.607 34.4925H157.661V36.8248H160.481ZM176.416 36.8248V27.8211C176.416 23.6719 173.758 21.3939 170.151 21.3939C168.416 21.3939 166.87 21.9634 165.758 23.4007H165.704V21.8006H163.073V36.8248H165.894V28.6076C165.894 25.7872 167.385 23.9702 169.853 23.9702C172.348 23.9702 173.596 25.4618 173.596 28.6347V36.8248H176.416ZM191.401 29.4483C191.401 32.2958 189.015 34.6281 186.167 34.6281C183.347 34.6281 181.042 32.1602 181.042 29.3398C181.042 26.3838 183.293 23.9702 186.167 23.9702C189.34 23.9702 191.401 26.3838 191.401 29.4483ZM194.005 36.8248V16.7564H191.185V23.6448H191.13C189.91 22.1261 187.984 21.3939 185.951 21.3939C181.476 21.3939 178.222 24.8923 178.222 29.4754C178.222 33.8959 181.666 37.2044 186.032 37.2044C188.229 37.2044 190.181 36.3095 191.347 34.6823H191.401V36.8248H194.005ZM198.685 28.3635C198.902 25.7872 201.207 23.9702 203.512 23.9702C205.926 23.9702 208.177 25.8143 208.394 28.3635H198.685ZM211.133 30.5331C211.214 30.0178 211.214 29.5839 211.214 29.1229C211.214 24.8109 207.851 21.3939 203.431 21.3939C199.444 21.3939 195.865 24.7024 195.865 29.4483C195.865 33.462 199.282 37.2044 203.512 37.2044C206.74 37.2044 209.56 35.1976 210.726 32.106H207.906C207.038 33.706 205.384 34.6281 203.621 34.6281C201.316 34.6281 199.336 33.0281 198.685 30.5331H211.133ZM215.84 36.8248V16.7564H213.02V36.8248H215.84ZM225.619 34.6281C222.798 34.6281 220.493 32.1602 220.493 29.3398C220.493 26.3838 222.798 23.9702 225.619 23.9702C228.738 23.9702 230.853 26.4109 230.853 29.3398C230.853 32.1874 228.548 34.6281 225.619 34.6281ZM233.619 36.8248V21.8006H230.799V23.916H230.744C229.578 22.2074 227.734 21.3939 225.538 21.3939C221.117 21.3939 217.673 24.7567 217.673 29.5568C217.673 33.8959 221.253 37.2044 225.646 37.2044C227.788 37.2044 229.687 36.2824 230.744 34.4925H230.799V36.8248H233.619ZM239.059 36.8248V28.3906C239.059 25.8685 240.306 24.377 242.747 24.2956V21.3939C240.767 21.5023 239.601 22.1532 238.923 23.1566H238.869V21.8006H236.238V36.8248H239.059ZM247.291 20.065V16.7564H244.471V20.065H247.291ZM247.291 36.8248V21.8006H244.471V36.8248H247.291ZM257.07 34.6281C254.25 34.6281 251.944 32.1602 251.944 29.3398C251.944 26.3838 254.25 23.9702 257.07 23.9702C260.189 23.9702 262.304 26.4109 262.304 29.3398C262.304 32.1874 259.999 34.6281 257.07 34.6281ZM265.07 36.8248V21.8006H262.25V23.916H262.196C261.029 22.2074 259.185 21.3939 256.989 21.3939C252.568 21.3939 249.124 24.7567 249.124 29.5568C249.124 33.8959 252.704 37.2044 257.097 37.2044C259.24 37.2044 261.138 36.2824 262.196 34.4925H262.25V36.8248H265.07Z" fill="white"/>
<path d="M54 0H0V54H54V0Z" fill="white"/>
<path d="M26.7997 2.18261C13.5683 2.36962 2.77028 13.1761 2.67351 26.3278C2.57673 39.4794 13.2154 50.4449 26.4426 50.8242C38.8073 51.1788 49.4473 42.1674 51.3271 30.2612H36.4905C34.9788 34.0655 31.2477 36.6342 26.8573 36.5082C21.3044 36.3489 17.0395 31.9535 17.0801 26.4323C17.1208 20.9112 21.4528 16.5807 27.0075 16.5022C31.3465 16.4408 34.9998 19.0002 36.4905 22.751H51.3235C49.4649 10.9912 39.0467 2.00951 26.7997 2.18261Z" fill="#3A4D9C"/>
</svg>
